<?xml version="1.0" encoding="utf-8"?>
<!-- Generator: Adobe Illustrator 22.1.0, SVG Export Plug-In . SVG Version: 6.00 Build 0)  -->
<svg version="1.1" id="Layer_1" xmlns="http://www.w3.org/2000/svg" xmlns:xlink="http://www.w3.org/1999/xlink" x="0px" y="0px"
	 viewBox="0 0 269.8 109.8" style="enable-background:new 0 0 269.8 109.8;" xml:space="preserve">
<style type="text/css">
	.st0{fill:#FFFFFF;stroke:#000000;stroke-width:1.25;}
	.st1{fill:#1C2128;}
	.st2{enable-background:new    ;}
	.st3{fill:#393F47;}
</style>
<path id="path2473-0" class="st0" d="M151.9,46c5.2,17.2,23.3,26.9,40.5,21.8c17.2-5.2,26.9-23.3,21.8-40.5
	C209,10,190.9,0.3,173.7,5.5C156.5,10.7,146.7,28.8,151.9,46z"/>
<path id="path2481-8" class="st1" d="M198.5,70.4c17-7.6,26.2-26.5,20.8-44.4C215.7,14,206.4,5.4,195.2,1.8
	c29.4,4.5,56.1,28,66.3,61.7c4.3,14.3,5.1,28.6,3,42C255,79.5,226.9,64.7,198.5,70.4z"/>
<path id="path2477-4" class="st1" d="M160.1,54.6c2.3,7.5,10.2,11.8,17.8,9.5c7.5-2.3,11.8-10.2,9.5-17.8
	c-2.3-7.5-10.2-11.8-17.8-9.5C162.1,39.1,157.8,47,160.1,54.6z"/>
<g class="st2">
	<path class="st1" d="M4,31.5h14.6c3.5,0,6.1,0.8,7.9,2.5c1.8,1.7,2.7,4.1,2.7,7.2c0,1.9-0.3,3.5-1,4.7c-0.7,1.2-1.7,2.3-3.1,3.2
		c1.4,0.3,2.6,0.7,3.6,1.2c1,0.5,1.8,1.2,2.4,2c0.6,0.8,1.1,1.7,1.3,2.7s0.4,2.1,0.4,3.2c0,1.8-0.3,3.3-0.9,4.7
		c-0.6,1.4-1.5,2.5-2.6,3.5c-1.1,0.9-2.5,1.6-4.1,2.1c-1.6,0.5-3.4,0.7-5.4,0.7H4V31.5z M13.8,46.3h1.8c3.1,0,4.6-1.2,4.6-3.6
		S18.6,39,15.5,39h-1.8C13.7,39,13.7,46.3,13.8,46.3z M13.8,61.6h2.1c2.5,0,4.2-0.3,5.3-1c1.1-0.6,1.6-1.7,1.6-3
		c0-1.4-0.5-2.4-1.6-3.1c-1.1-0.6-2.8-0.9-5.3-0.9h-2.2V61.6z"/>
	<path class="st1" d="M38.5,31.5H53c2.6,0,5,0.5,7.2,1.6c2.2,1,4.2,2.4,5.9,4.1c1.7,1.7,3,3.7,4,6c1,2.3,1.4,4.7,1.4,7.2
		c0,2.5-0.5,4.8-1.4,7.1c-0.9,2.3-2.3,4.3-3.9,6c-1.7,1.7-3.7,3.1-5.9,4.2s-4.7,1.6-7.3,1.6H38.5L38.5,31.5L38.5,31.5z M48.3,60.9
		h2.2c1.7,0,3.2-0.3,4.5-0.8c1.3-0.5,2.5-1.3,3.4-2.2c0.9-0.9,1.6-2,2.1-3.3c0.5-1.3,0.7-2.7,0.7-4.2c0-1.5-0.2-2.9-0.8-4.2
		s-1.2-2.4-2.1-3.4c-0.9-0.9-2-1.7-3.4-2.2s-2.8-0.8-4.5-0.8h-2.2C48.3,39.8,48.3,60.9,48.3,60.9z"/>
	<path class="st1" d="M87.6,31.5V52c0,1.1,0,2.2,0.1,3.4c0.1,1.2,0.3,2.2,0.8,3.1c0.4,0.9,1.1,1.7,2,2.3s2.2,0.9,3.8,0.9
		s2.9-0.3,3.8-0.9s1.5-1.3,2-2.3c0.4-0.9,0.7-2,0.8-3.1c0.1-1.1,0.1-2.3,0.1-3.4V31.5h9.8v21.8c0,5.9-1.3,10.1-4,12.8
		c-2.7,2.7-6.8,4.1-12.4,4.1c-5.6,0-9.7-1.3-12.4-4.1s-4.1-7-4.1-12.8V31.5H87.6z"/>
	<path class="st1" d="M139.3,41.1c-1.1-0.9-2.1-1.5-3.2-1.9c-1.1-0.4-2.1-0.6-3.1-0.6c-1.3,0-2.3,0.3-3.1,0.9
		c-0.8,0.6-1.2,1.4-1.2,2.4c0,0.7,0.2,1.2,0.6,1.6c0.4,0.4,0.9,0.8,1.6,1.1c0.6,0.3,1.4,0.6,2.2,0.8c0.8,0.2,1.6,0.5,2.4,0.8
		c3.2,1.1,5.5,2.5,7,4.3c1.5,1.8,2.2,4.1,2.2,7c0,1.9-0.3,3.7-1,5.2c-0.6,1.6-1.6,2.9-2.9,4s-2.8,2-4.6,2.6
		c-1.8,0.6-3.9,0.9-6.2,0.9c-4.8,0-9.2-1.4-13.2-4.2l4.2-7.9c1.5,1.3,2.9,2.3,4.3,2.9c1.4,0.6,2.8,1,4.2,1c1.6,0,2.8-0.4,3.6-1.1
		c0.8-0.7,1.2-1.6,1.2-2.5c0-0.6-0.1-1.1-0.3-1.5c-0.2-0.4-0.5-0.8-1-1.1c-0.5-0.4-1.1-0.7-1.8-1s-1.7-0.6-2.7-1
		c-1.3-0.4-2.5-0.8-3.7-1.3c-1.2-0.5-2.3-1.1-3.2-1.9s-1.7-1.8-2.3-3c-0.6-1.2-0.9-2.8-0.9-4.6s0.3-3.6,0.9-5.1
		c0.6-1.5,1.5-2.8,2.6-3.9c1.1-1.1,2.5-1.9,4.1-2.5c1.6-0.6,3.4-0.9,5.4-0.9c1.9,0,3.8,0.3,5.9,0.8c2,0.5,4,1.3,5.9,2.3L139.3,41.1z
		"/>
</g>
<g class="st2">
	<path class="st3" d="M16.4,85.8c-0.9-1.1-2-1.7-3.4-1.7c-0.6,0-1.1,0.1-1.6,0.3s-0.9,0.5-1.3,0.9c-0.4,0.4-0.6,0.8-0.9,1.3
		C9.1,87.1,9,87.7,9,88.3c0,0.6,0.1,1.2,0.3,1.7c0.2,0.5,0.5,0.9,0.9,1.3s0.8,0.7,1.3,0.9c0.5,0.2,1,0.3,1.6,0.3
		c1.3,0,2.4-0.5,3.4-1.6v4.6L16,95.6c-0.6,0.2-1.2,0.4-1.7,0.5c-0.5,0.1-1,0.2-1.5,0.2c-1,0-2-0.2-3-0.6c-1-0.4-1.8-0.9-2.5-1.7
		c-0.7-0.7-1.3-1.6-1.8-2.5c-0.4-1-0.7-2.1-0.7-3.2s0.2-2.2,0.7-3.2s1-1.8,1.7-2.5c0.7-0.7,1.6-1.2,2.5-1.6c1-0.4,2-0.6,3-0.6
		c0.6,0,1.2,0.1,1.8,0.2c0.6,0.1,1.2,0.3,1.8,0.6V85.8z"/>
	<path class="st3" d="M22.8,80.8v11.8h4.7v3.3h-8.6V80.8H22.8z"/>
	<path class="st3" d="M28.6,88.3c0-1.1,0.2-2.2,0.6-3.1c0.4-1,1-1.8,1.7-2.5c0.7-0.7,1.6-1.3,2.6-1.7c1-0.4,2.1-0.6,3.4-0.6
		c1.2,0,2.3,0.2,3.4,0.6c1,0.4,1.9,1,2.7,1.7s1.3,1.6,1.7,2.5c0.4,1,0.6,2,0.6,3.1s-0.2,2.2-0.6,3.1c-0.4,1-1,1.8-1.7,2.5
		s-1.6,1.3-2.7,1.7c-1,0.4-2.1,0.6-3.4,0.6c-1.2,0-2.3-0.2-3.4-0.6c-1-0.4-1.9-1-2.6-1.7c-0.7-0.7-1.3-1.6-1.7-2.5
		C28.8,90.5,28.6,89.4,28.6,88.3z M32.7,88.3c0,0.6,0.1,1.2,0.3,1.7s0.5,0.9,0.9,1.3c0.4,0.4,0.8,0.7,1.3,0.9
		c0.5,0.2,1.1,0.3,1.6,0.3s1.1-0.1,1.6-0.3c0.5-0.2,1-0.5,1.4-0.9c0.4-0.4,0.7-0.8,0.9-1.3c0.2-0.5,0.3-1.1,0.3-1.7
		s-0.1-1.2-0.3-1.7s-0.5-0.9-0.9-1.3c-0.4-0.4-0.8-0.7-1.4-0.9c-0.5-0.2-1.1-0.3-1.6-0.3c-0.6,0-1.1,0.1-1.6,0.3
		c-0.5,0.2-1,0.5-1.3,0.9c-0.4,0.4-0.7,0.8-0.9,1.3S32.7,87.7,32.7,88.3z"/>
	<path class="st3" d="M51.7,80.8V89c0,0.4,0,0.9,0,1.3s0.1,0.9,0.3,1.2c0.2,0.4,0.4,0.7,0.8,0.9s0.9,0.4,1.5,0.4
		c0.7,0,1.2-0.1,1.5-0.4c0.4-0.2,0.6-0.5,0.8-0.9c0.2-0.4,0.3-0.8,0.3-1.2c0-0.5,0-0.9,0-1.3v-8.2h3.9v8.7c0,2.3-0.5,4.1-1.6,5.1
		s-2.7,1.6-5,1.6s-3.9-0.5-5-1.6c-1.1-1.1-1.6-2.8-1.6-5.1v-8.7H51.7z"/>
	<path class="st3" d="M64.1,80.8h5.8c1,0,2,0.2,2.9,0.6s1.7,1,2.4,1.7s1.2,1.5,1.6,2.4c0.4,0.9,0.6,1.9,0.6,2.9c0,1-0.2,1.9-0.6,2.8
		c-0.4,0.9-0.9,1.7-1.6,2.4c-0.7,0.7-1.5,1.2-2.4,1.7s-1.9,0.6-2.9,0.6h-5.8C64.1,95.8,64.1,80.8,64.1,80.8z M68,92.5h0.9
		c0.7,0,1.3-0.1,1.8-0.3c0.5-0.2,1-0.5,1.3-0.9c0.4-0.4,0.6-0.8,0.8-1.3c0.2-0.5,0.3-1.1,0.3-1.7c0-0.6-0.1-1.2-0.3-1.7
		c-0.2-0.5-0.5-1-0.8-1.3c-0.4-0.4-0.8-0.7-1.3-0.9c-0.5-0.2-1.1-0.3-1.8-0.3H68C68,84.1,68,92.5,68,92.5z"/>
	<path class="st3" d="M86.6,80.8h5.8c1,0,2,0.2,2.9,0.6s1.7,1,2.4,1.7s1.2,1.5,1.6,2.4c0.4,0.9,0.6,1.9,0.6,2.9c0,1-0.2,1.9-0.6,2.8
		c-0.4,0.9-0.9,1.7-1.6,2.4c-0.7,0.7-1.5,1.2-2.4,1.7s-1.9,0.6-2.9,0.6h-5.8C86.6,95.8,86.6,80.8,86.6,80.8z M90.5,92.5h0.9
		c0.7,0,1.3-0.1,1.8-0.3c0.5-0.2,1-0.5,1.3-0.9c0.4-0.4,0.6-0.8,0.8-1.3c0.2-0.5,0.3-1.1,0.3-1.7c0-0.6-0.1-1.2-0.3-1.7
		c-0.2-0.5-0.5-1-0.8-1.3c-0.4-0.4-0.8-0.7-1.3-0.9c-0.5-0.2-1.1-0.3-1.8-0.3h-0.9C90.5,84.1,90.5,92.5,90.5,92.5z"/>
	<path class="st3" d="M110.9,93.2h-5.6l-0.9,2.6h-4.2l5.7-15.1h4.3l5.7,15.1h-4.2L110.9,93.2z M109.9,90.2l-1.8-5l-1.8,5
		C106.3,90.2,109.9,90.2,109.9,90.2z"/>
	<path class="st3" d="M122.8,84.1v11.8h-3.9V84.1h-3.2v-3.3H126v3.3H122.8z"/>
	<path class="st3" d="M136.3,93.2h-5.6l-0.9,2.6h-4.2l5.7-15.1h4.3l5.7,15.1h-4.2L136.3,93.2z M135.2,90.2l-1.8-5l-1.8,5
		C131.7,90.2,135.2,90.2,135.2,90.2z"/>
	<path class="st3" d="M143.1,80.8h5.8c1.4,0,2.4,0.3,3.2,1c0.7,0.7,1.1,1.6,1.1,2.9c0,0.8-0.1,1.4-0.4,1.9c-0.3,0.5-0.7,0.9-1.2,1.3
		c0.6,0.1,1,0.3,1.4,0.5s0.7,0.5,1,0.8c0.2,0.3,0.4,0.7,0.5,1.1c0.1,0.4,0.2,0.8,0.2,1.3c0,0.7-0.1,1.3-0.4,1.9
		c-0.2,0.5-0.6,1-1,1.4c-0.4,0.4-1,0.7-1.6,0.8c-0.6,0.2-1.4,0.3-2.2,0.3h-6.3V80.8z M147,86.7h0.7c1.2,0,1.8-0.5,1.8-1.5
		c0-1-0.6-1.5-1.8-1.5H147V86.7z M147,92.8h0.9c1,0,1.7-0.1,2.1-0.4s0.6-0.7,0.6-1.2c0-0.6-0.2-1-0.6-1.2c-0.4-0.3-1.1-0.4-2.1-0.4
		H147V92.8z"/>
	<path class="st3" d="M165.9,93.2h-5.6l-0.9,2.6h-4.2l5.7-15.1h4.3l5.7,15.1h-4.2L165.9,93.2z M164.9,90.2l-1.8-5l-1.8,5
		C161.4,90.2,164.9,90.2,164.9,90.2z"/>
	<path class="st3" d="M181,84.6c-0.4-0.3-0.9-0.6-1.3-0.8c-0.4-0.2-0.8-0.2-1.2-0.2c-0.5,0-0.9,0.1-1.2,0.4
		c-0.3,0.2-0.5,0.6-0.5,0.9c0,0.3,0.1,0.5,0.2,0.7c0.2,0.2,0.4,0.3,0.6,0.4s0.6,0.2,0.9,0.3c0.3,0.1,0.6,0.2,1,0.3
		c1.3,0.4,2.2,1,2.8,1.7c0.6,0.7,0.9,1.6,0.9,2.8c0,0.8-0.1,1.5-0.4,2.1s-0.6,1.2-1.1,1.6c-0.5,0.4-1.1,0.8-1.8,1
		c-0.7,0.2-1.6,0.4-2.5,0.4c-1.9,0-3.7-0.6-5.3-1.7l1.7-3.2c0.6,0.5,1.2,0.9,1.7,1.2c0.6,0.3,1.1,0.4,1.7,0.4c0.6,0,1.1-0.1,1.4-0.4
		s0.5-0.6,0.5-1c0-0.2,0-0.4-0.1-0.6c-0.1-0.2-0.2-0.3-0.4-0.5c-0.2-0.1-0.4-0.3-0.7-0.4c-0.3-0.1-0.7-0.3-1.1-0.4
		c-0.5-0.2-1-0.3-1.5-0.5c-0.5-0.2-0.9-0.4-1.3-0.8c-0.4-0.3-0.7-0.7-0.9-1.2c-0.2-0.5-0.4-1.1-0.4-1.8c0-0.7,0.1-1.4,0.4-2
		c0.2-0.6,0.6-1.1,1-1.6c0.4-0.4,1-0.8,1.6-1c0.6-0.2,1.4-0.4,2.2-0.4c0.7,0,1.5,0.1,2.3,0.3c0.8,0.2,1.6,0.5,2.3,0.9L181,84.6z"/>
	<path class="st3" d="M194.2,84.1h-4.7v2.5h4.4v3.3h-4.4v2.6h4.7v3.3h-8.6V80.8h8.6V84.1z"/>
	<path class="st3" d="M205.3,84.6c-0.4-0.3-0.9-0.6-1.3-0.8c-0.4-0.2-0.8-0.2-1.2-0.2c-0.5,0-0.9,0.1-1.2,0.4s-0.5,0.6-0.5,0.9
		c0,0.3,0.1,0.5,0.2,0.7c0.2,0.2,0.4,0.3,0.6,0.4c0.3,0.1,0.6,0.2,0.9,0.3c0.3,0.1,0.6,0.2,1,0.3c1.3,0.4,2.2,1,2.8,1.7
		c0.6,0.7,0.9,1.6,0.9,2.8c0,0.8-0.1,1.5-0.4,2.1c-0.3,0.6-0.6,1.2-1.1,1.6c-0.5,0.4-1.1,0.8-1.8,1c-0.7,0.2-1.6,0.4-2.5,0.4
		c-1.9,0-3.7-0.6-5.3-1.7l1.7-3.2c0.6,0.5,1.2,0.9,1.7,1.2c0.6,0.3,1.1,0.4,1.7,0.4c0.6,0,1.1-0.1,1.4-0.4c0.3-0.3,0.5-0.6,0.5-1
		c0-0.2,0-0.4-0.1-0.6s-0.2-0.3-0.4-0.5c-0.2-0.1-0.4-0.3-0.7-0.4s-0.7-0.3-1.1-0.4c-0.5-0.2-1-0.3-1.5-0.5
		c-0.5-0.2-0.9-0.4-1.3-0.8c-0.4-0.3-0.7-0.7-0.9-1.2c-0.2-0.5-0.4-1.1-0.4-1.8c0-0.7,0.1-1.4,0.4-2c0.2-0.6,0.6-1.1,1-1.6
		c0.4-0.4,1-0.8,1.6-1c0.6-0.2,1.4-0.4,2.2-0.4c0.7,0,1.5,0.1,2.3,0.3c0.8,0.2,1.6,0.5,2.3,0.9L205.3,84.6z"/>
</g>
</svg>
